<svg width="25" height="24" viewBox="0 0 25 24" fill="none" xmlns="http://www.w3.org/2000/svg">
<path d="M24.3663 11.7542C24.3386 16.8571 21.5268 21.2448 17.1855 22.9748C12.411 24.8773 8.0208 24.1435 4.17556 20.6729C3.86508 20.3927 3.69211 19.8145 3.70094 19.3796C3.70645 19.1117 4.16452 18.6561 4.44362 18.6369C4.85139 18.6088 5.3823 18.7873 5.68537 19.0674C8.79613 21.9438 13.1261 22.6422 16.8543 20.6433C20.3665 18.7602 22.2497 15.7442 22.1208 11.7257C21.9866 7.54111 19.8345 4.53915 15.9926 2.97542C12.2524 1.45299 8.77941 2.21334 5.75838 4.90592C5.04344 5.54312 4.38764 5.63789 3.89252 5.10539C3.43461 4.61295 3.55697 3.85245 4.22428 3.25562C7.71001 0.13871 11.7432 -0.77159 16.1566 0.660324C20.6969 2.13355 23.3253 5.41887 24.2321 10.0817C24.3565 10.7219 24.3394 11.3892 24.3663 11.7542Z" fill="white"/>
<path d="M17.1065 10.823C17.1065 12.2502 17.1065 13.5715 17.1065 14.9391C16.8278 14.9582 16.5964 14.9587 16.3699 14.9923C15.6662 15.0968 15.3961 14.7851 15.496 14.1059C15.6003 13.3975 15.325 13.0632 14.5876 13.1657C14.459 13.1835 14.3256 13.1677 14.1944 13.168C13.1184 13.1698 13.139 13.1712 13.0714 14.2284C13.055 14.4851 12.9067 14.8869 12.7256 14.949C12.2766 15.1031 11.9485 14.9694 11.9513 14.3435C11.9567 13.172 11.9208 13.1718 10.7624 13.169C10.5787 13.1685 10.3942 13.178 10.2113 13.1652C9.13924 13.0904 8.33238 13.1773 7.69645 14.3894C6.80507 16.0885 4.64135 16.6474 2.87578 16.0175C1.03468 15.3606 -0.138007 13.5834 0.0130531 11.6792C0.160644 9.81884 1.5894 8.1821 3.34646 7.86059C5.39192 7.48625 7.21331 8.33931 8.05927 10.1486C8.31661 10.699 8.64286 10.8413 9.20767 10.8345C11.4908 10.8074 13.7742 10.8231 16.0576 10.8231C16.3912 10.823 16.7249 10.823 17.1065 10.823ZM4.2432 14.5898C5.66534 14.5987 6.85931 13.4367 6.8817 12.0221C6.90378 10.6312 5.69987 9.42417 4.28467 9.41802C2.82721 9.41171 1.68575 10.5331 1.67487 11.9819C1.66399 13.4318 2.79552 14.5809 4.2432 14.5898Z" fill="white"/>
</svg>
