<svg width="16" height="25" viewBox="0 0 16 25" fill="none" xmlns="http://www.w3.org/2000/svg">
<path d="M13.0906 21.7834C13.1618 21.7614 13.2407 21.7237 13.3232 21.7139C14.4321 21.5803 14.4317 21.5814 14.4317 20.4422C14.4317 15.0717 14.4322 9.7011 14.4318 4.33063C14.4317 3.31413 14.4301 3.31452 13.4131 3.32297C13.3273 3.32375 13.2414 3.3153 13.0323 3.30529C13.0323 3.05594 13.0539 2.80725 13.0277 2.56375C12.979 2.11328 13.2024 2.00473 13.6012 2.02163C14.0984 2.04269 14.5981 2.04542 15.095 2.02163C15.5904 1.99797 15.7735 2.17283 15.7688 2.69635C15.745 5.33803 15.7592 7.9801 15.7592 10.622C15.7592 14.4767 15.7451 18.3314 15.7711 22.1859C15.7754 22.8237 15.564 23.0481 14.9516 22.9822C14.6519 22.9499 14.3459 22.9778 14.0427 22.9791C12.9042 22.984 12.9042 22.9841 13.0906 21.7834Z" fill="white"/>
<path d="M12.243 0.769946C12.2424 -0.0265884 12.1968 -0.074561 11.4331 0.055053C8.02026 0.634481 4.60765 1.21599 1.19856 1.81674C0.0169523 2.025 0.0192927 2.05139 0.0190327 3.27486C0.0174727 9.55523 0.0173424 15.8356 0.0168224 22.116C0.0168224 22.2458 -0.029329 22.4088 0.0312528 22.4991C0.178027 22.7173 0.350283 23.042 0.556079 23.0788C4.15485 23.7216 7.75947 24.3317 11.3645 24.9385C12.2031 25.0797 12.2386 25.0379 12.2392 24.1588C12.2415 20.2824 12.2402 16.4058 12.2402 12.5293H12.2446C12.2445 8.60958 12.2463 4.6897 12.243 0.769946ZM10.7041 13.439C10.1955 13.439 9.78324 13.0267 9.78324 12.5181C9.78324 12.0096 10.1955 11.5973 10.7041 11.5973C11.2126 11.5973 11.6249 12.0096 11.6249 12.5181C11.6249 13.0266 11.2126 13.439 10.7041 13.439Z" fill="white"/>
</svg>
