<svg width="225" height="62" viewBox="0 0 225 62" fill="none" xmlns="http://www.w3.org/2000/svg">
<path d="M3.2697 27.4295C3.2697 14.0803 14.1268 3.25895 27.52 3.25895C30.8736 3.25895 34.0681 3.93789 36.9733 5.16489L38.6163 2.32906C35.2212 0.835377 31.4693 0 27.52 0C12.3213 0 0 12.2808 0 27.4295C0 36.5143 4.43426 44.5639 11.2598 49.5556L12.905 46.7154C7.05275 42.3028 3.2697 35.3074 3.2697 27.4295ZM47.2636 8.33096L45.5568 11.2776C49.4188 15.5582 51.7703 21.2195 51.7703 27.4295C51.7703 40.7787 40.9132 51.6 27.52 51.6C25.799 51.6 24.1211 51.4186 22.5021 51.0791L20.7926 54.0301C22.9457 54.5694 25.1985 54.8589 27.52 54.8589C42.7187 54.8589 55.04 42.5781 55.04 27.4295C55.04 20.0029 52.0738 13.2699 47.2636 8.33096Z" fill="#FF9900"/>
<path fill-rule="evenodd" clip-rule="evenodd" d="M41.9612 2.71579L7.62935 61.92H16.3486L50.6804 2.71579H41.9612Z" fill="#FF9900"/>
<path fill-rule="evenodd" clip-rule="evenodd" d="M25.6126 9.77683L7.08429 42.9095L11.4439 48.8842L34.3318 9.77683H25.6126Z" fill="#FF9900"/>
<path fill-rule="evenodd" clip-rule="evenodd" d="M10.3541 15.2084L1.08991 32.5895L4.35961 40.7368L19.0733 15.2084H10.3541Z" fill="#FF9900"/>
<path d="M80.2715 18.1953V27.4336H85.8359C87.3828 27.4336 88.5716 27.0182 89.4023 26.1875C90.2331 25.3568 90.6484 24.2467 90.6484 22.8574C90.6484 21.4538 90.2331 20.3294 89.4023 19.4844C88.5716 18.625 87.3828 18.1953 85.8359 18.1953H80.2715ZM85.8359 31.7949H80.2715V42H74.6211V13.8555H85.8359C89.0586 13.8555 91.6009 14.6719 93.4629 16.3047C95.3392 17.9232 96.2773 20.1003 96.2773 22.8359C96.2773 25.5573 95.3464 27.7344 93.4844 29.3672C91.6224 30.9857 89.0729 31.7949 85.8359 31.7949Z" fill="#1F1D1B"/>
<path d="M105.623 42H99.9941V21.0742H105.236L105.473 24.168C106.547 21.8477 108.087 20.6875 110.092 20.6875C110.579 20.6875 111.08 20.7663 111.596 20.9238L110.994 25.9297L108.932 25.8652C107.342 25.8652 106.239 26.5312 105.623 27.8633V42Z" fill="#1F1D1B"/>
<path d="M118.234 31.3867V31.7949C118.234 33.7858 118.578 35.3398 119.266 36.457C119.967 37.5599 121.035 38.1113 122.467 38.1113C123.899 38.1113 124.959 37.5527 125.646 36.4355C126.348 35.3184 126.699 33.7715 126.699 31.7949V31.3867C126.699 29.4388 126.348 27.9062 125.646 26.7891C124.945 25.6576 123.885 25.0918 122.467 25.0918C121.049 25.0918 119.989 25.6576 119.287 26.7891C118.585 27.9206 118.234 29.4531 118.234 31.3867ZM112.605 31.7949V31.3867C112.605 28.1927 113.479 25.6217 115.227 23.6738C116.988 21.7116 119.395 20.7305 122.445 20.7305C125.51 20.7305 127.924 21.7116 129.686 23.6738C131.462 25.6217 132.35 28.1927 132.35 31.3867V31.7949C132.35 35.0033 131.469 37.5814 129.707 39.5293C127.945 41.4772 125.532 42.4512 122.467 42.4512C119.416 42.4512 117.01 41.4772 115.248 39.5293C113.486 37.5814 112.605 35.0033 112.605 31.7949Z" fill="#1F1D1B"/>
<path d="M142.941 42H137.248V25.0488H134.133V21.0742H137.248V18.7539C137.248 16.4049 137.921 14.6003 139.268 13.3398C140.614 12.0651 142.519 11.4277 144.982 11.4277C145.813 11.4277 146.852 11.5638 148.098 11.8359L147.625 16.0254C146.694 15.8965 146.064 15.832 145.734 15.832C143.872 15.832 142.941 16.806 142.941 18.7539V21.0742H147.109V25.0488H142.941V42Z" fill="#1F1D1B"/>
<path d="M155.939 21.0742V42H150.289V21.0742H155.939ZM155.939 11.8359V16.0684H150.289V11.8359H155.939Z" fill="#1F1D1B"/>
<path d="M161.633 16.0039H167.283V21.1172H170.807V25.0918H167.283V35.748C167.283 37.252 167.906 38.0039 169.152 38.0039C169.596 38.0039 170.098 37.9323 170.656 37.7891L171.129 41.8711C169.94 42.2578 168.801 42.4512 167.713 42.4512C163.66 42.4512 161.633 40.224 161.633 35.7695V25.0918H158.582V21.1172H161.633V16.0039Z" fill="#1F1D1B"/>
<path d="M191.002 13.8984H197.555V32.332C197.555 35.5117 196.502 37.9967 194.396 39.7871C192.305 41.5632 189.484 42.4512 185.932 42.4512C182.394 42.4512 179.572 41.5632 177.467 39.7871C175.361 37.9967 174.309 35.5117 174.309 32.332V13.8984H180.861V32.332C180.861 34.0365 181.298 35.3112 182.172 36.1562C183.06 37.0013 184.327 37.4238 185.975 37.4238C189.326 37.4238 191.002 35.7266 191.002 32.332V13.8984Z" fill="#FF9900"/>
<path d="M208.426 18.8828V27.3262H213.303C214.692 27.3262 215.759 26.9466 216.504 26.1875C217.263 25.4284 217.643 24.4115 217.643 23.1367C217.643 21.8477 217.263 20.8164 216.504 20.043C215.759 19.2695 214.692 18.8828 213.303 18.8828H208.426ZM213.303 32.3535H208.426V42H201.873V13.8555H213.303C216.64 13.8555 219.283 14.7005 221.23 16.3906C223.193 18.0807 224.174 20.3223 224.174 23.1152C224.174 25.9082 223.193 28.1497 221.23 29.8398C219.283 31.5156 216.64 32.3535 213.303 32.3535Z" fill="#FF9900"/>
</svg>
