<svg width="37" height="36" viewBox="0 0 37 36" fill="none" xmlns="http://www.w3.org/2000/svg">
<path d="M1.24223 35.7742C5.42437 31.8818 9.6065 27.9895 13.8289 24.0597C15.1162 24.9187 16.3856 25.7048 17.5829 26.5886C18.2372 27.0717 18.7115 27.0349 19.3494 26.5691C20.531 25.7065 21.7794 24.9352 23.0937 24.0639C27.2904 27.9711 31.4832 31.8749 35.676 35.7788C35.6451 35.8525 35.6144 35.9263 35.5835 36C24.164 36 12.7443 36 1.3248 36C1.2974 35.9246 1.26981 35.8494 1.24223 35.7742Z" fill="#1F1D1B"/>
<path d="M0 14.604C1.8349 16.4146 4.17405 17.5791 6.28866 19.0521C8.34111 20.4818 10.4504 21.8304 12.6161 23.2686C8.41687 27.171 4.30848 30.9889 0 34.9926C0 28.0022 0 21.2906 0 14.604Z" fill="#1F1D1B"/>
<path d="M36.9095 34.9867C32.6027 30.982 28.4965 27.1638 24.3102 23.2711C26.0524 22.1095 27.6994 21.007 29.3505 19.9116C31.4657 18.5083 33.5939 17.1243 35.6946 15.6996C36.1539 15.3881 36.5208 14.9403 36.9095 14.5747C36.9095 21.27 36.9095 27.9934 36.9095 34.9867Z" fill="#1F1D1B"/>
<path d="M5.68217 16.9597C4.33937 16.0702 3.09495 15.3407 1.96933 14.4595C1.41691 14.0269 0.759115 13.3217 0.743117 12.7239C0.726198 12.096 1.41121 11.4438 1.80971 10.8148C1.8851 10.6959 2.04436 10.6098 2.18301 10.5545C4.1323 9.77842 4.69005 8.31755 4.39637 6.33167C4.26434 5.43904 4.37394 4.51074 4.37394 3.46401C5.24413 3.46401 6.00141 3.46401 6.75887 3.46401C7.40232 3.46401 8.05754 3.38494 8.68756 3.47744C11.6994 3.91971 14.2004 2.92042 16.5384 1.06033C18.3797 -0.404582 18.4658 -0.294249 20.4221 1.03825C21.1812 1.55537 21.9651 2.03846 22.7016 2.58592C23.5954 3.25033 24.5426 3.53886 25.6798 3.48921C27.6067 3.4048 29.5407 3.49601 31.4703 3.45151C32.269 3.43312 32.6281 3.60378 32.5669 4.50891C32.4803 5.7901 32.5009 7.08399 32.5742 8.36702C32.5959 8.7453 32.8734 9.19013 33.168 9.45549C33.9316 10.1436 34.9064 10.6363 35.5452 11.4138C36.4597 12.5267 36.269 13.4955 35.0921 14.3751C33.8985 15.2671 32.6198 16.0457 31.1855 17.0025C31.1855 16.5014 31.1855 16.1857 31.1855 15.8699C31.1855 12.4991 31.1643 9.12798 31.2015 5.75755C31.2097 4.99991 30.9957 4.76691 30.2257 4.76948C22.3809 4.79596 14.5358 4.79725 6.69102 4.77132C5.90487 4.76875 5.71637 5.03282 5.72299 5.77373C5.75333 9.20558 5.73219 12.6378 5.72685 16.07C5.72612 16.3063 5.7035 16.5432 5.68217 16.9597Z" fill="#1F1D1B"/>
<path d="M19.3632 17.1265C18.4693 17.3794 17.7558 17.7357 17.0346 17.7519C15.6723 17.7828 14.7353 16.7988 14.5103 15.3056C14.3109 13.9832 14.6037 12.7481 15.2776 11.6049C16.1048 10.2018 17.9724 9.18499 19.9085 10.5631C20.3715 10.3886 20.7533 10.1606 21.1569 10.1109C21.8633 10.0239 22.1833 10.3761 22.0122 11.1084C21.7346 12.2972 21.4161 13.4802 21.2241 14.6831C21.1603 15.0832 21.4319 15.5369 21.5501 15.9663C21.9858 15.817 22.5531 15.7936 22.8355 15.4979C24.634 13.6156 24.3233 10.7527 22.2164 9.23814C19.9703 7.62355 16.4553 7.96798 14.5478 9.98954C12.6044 12.0492 12.4184 15.5194 14.1853 17.6749C15.6188 19.4235 17.5969 19.7088 19.6884 19.5272C21.2129 19.3948 22.5867 18.8421 23.8229 17.9138C24.0743 17.7249 24.5128 17.7854 24.865 17.731C24.7714 18.0984 24.799 18.5991 24.5649 18.8121C22.5402 20.6536 20.1106 21.1488 17.4737 20.7207C13.6426 20.0988 11.5335 17.498 11.706 13.6849C11.8969 9.46875 15.7754 6.35191 19.939 7.02956C22.3688 7.42512 24.3019 8.41227 25.0949 10.9465C25.8729 13.4332 24.5805 16.4141 22.2614 17.4395C21.0106 17.9926 20.2726 17.8902 19.3632 17.1265ZM16.1145 14.2951C16.2186 15.3556 16.6508 16.1769 17.3317 16.3869C18.0436 16.6064 18.9989 16.1462 19.3555 15.1875C19.6536 14.3859 19.8717 13.4653 19.7744 12.6385C19.7137 12.1229 19.0758 11.4487 18.5581 11.2854C18.1473 11.156 17.3262 11.5565 17.0434 11.9671C16.5813 12.6382 16.4091 13.5087 16.1145 14.2951Z" fill="#FF9900"/>
<path d="M16.1145 14.2951C16.4091 13.5087 16.5813 12.6382 17.0434 11.9671C17.3262 11.5565 18.1473 11.156 18.5581 11.2854C19.0758 11.4487 19.7137 12.1229 19.7744 12.6385C19.8717 13.4653 19.6536 14.3859 19.3555 15.1875C18.9989 16.1462 18.0436 16.6064 17.3317 16.3869C16.6508 16.1769 16.2186 15.3556 16.1145 14.2951Z" fill="white"/>
</svg>
