<svg width="19" height="36" viewBox="0 0 19 36" fill="none" xmlns="http://www.w3.org/2000/svg">
<path d="M18.4847 17.97C18.4853 22.8899 18.4892 27.8099 18.4831 32.7298C18.4811 34.397 17.7659 35.459 16.3627 35.8734C16.0399 35.9687 15.6861 35.9923 15.3465 35.993C11.2891 36.0008 7.2316 36.0027 3.17399 35.9956C1.19994 35.9922 0.00771567 34.8248 0.00594482 32.8388C-0.00320456 22.9255 -0.00231924 13.012 0.0122903 3.09871C0.0150941 1.18135 1.24495 0.00666547 3.17606 0.00416834C7.20902 -0.0011197 11.2418 -0.00185448 15.2748 0.00475558C17.2894 0.00813405 18.4775 1.18972 18.4812 3.20975C18.4904 8.12998 18.4842 13.0501 18.4847 17.97ZM17.2753 18.1736C17.2753 13.818 17.2663 9.46228 17.2862 5.10669C17.2888 4.54116 17.1383 4.34477 16.5442 4.34741C11.6769 4.3693 6.80925 4.36974 1.94178 4.34962C1.35371 4.34712 1.19714 4.53074 1.19817 5.10317C1.21588 13.741 1.21824 22.3789 1.20082 31.0168C1.1995 31.6424 1.34367 31.8586 2.0135 31.8547C6.83153 31.8262 11.65 31.8263 16.468 31.8536C17.1308 31.8574 17.291 31.6533 17.2872 31.0202C17.2618 26.7382 17.2741 22.4559 17.2753 18.1736Z" fill="black"/>
</svg>
