<svg width="20" height="20" viewBox="0 0 20 20" fill="none" xmlns="http://www.w3.org/2000/svg">
<path d="M1.94832 3.49263C1.94832 8.37607 1.94832 13.1899 1.94832 18.0457C6.77847 18.0457 11.5714 18.0457 16.4351 18.0457C16.4463 17.8218 16.4665 17.6024 16.4667 17.3829C16.4692 15.3657 16.4794 13.3482 16.4595 11.3312C16.455 10.8769 16.5895 10.6974 17.0577 10.7062C18.6463 10.7356 18.3425 10.5856 18.3536 11.9918C18.3723 14.3416 18.359 16.6917 18.3564 19.0417C18.3555 19.8016 18.1972 19.9717 17.4525 19.9723C11.9415 19.9762 6.43051 19.9764 0.919435 19.9746C0.207556 19.9743 0.0067468 19.799 0.00574837 19.1028C-0.00173984 13.5502 -0.0017412 7.99754 0.00474859 2.4449C0.00549741 1.75786 0.181596 1.59761 0.862025 1.59636C3.46156 1.59149 6.06122 1.60185 8.66063 1.58488C9.09919 1.58201 9.2356 1.72616 9.22574 2.15873C9.19017 3.71316 9.40708 3.47778 7.90757 3.48913C6.16081 3.50236 4.41381 3.49238 2.66681 3.4925C2.44354 3.49263 2.22001 3.49263 1.94832 3.49263Z" fill="white"/>
<path d="M16.8594 0L15.3689 1.4905L18.1369 4.25857L19.6274 2.76807L16.8594 0Z" fill="white"/>
<path d="M8.76847 8.0913L14.7305 2.1293L17.4985 4.89737L11.5365 10.8594L8.76847 8.0913Z" fill="white"/>
<path d="M7.49061 12.3499L8.12939 8.73007L10.8975 11.4981L7.49061 12.3499Z" fill="white"/>
</svg>
