<svg width="107" height="107" viewBox="0 0 107 107" fill="none" xmlns="http://www.w3.org/2000/svg">
<path d="M18.1651 82.8735C20.3162 84.93 22.4673 86.9861 24.6185 89.0426L24.5505 88.9793C27.5554 91.1227 30.3307 93.7447 33.609 95.3192C43.3275 99.988 53.6574 101.287 64.1381 98.6359C75.7261 95.7047 85.0837 89.4092 91.5816 79.0655C96.5213 71.2027 99.0498 62.7423 98.8816 53.5089C98.7819 48.0451 97.5478 42.7659 95.5214 37.6774C95.1856 36.8339 95.0424 35.9138 94.8103 35.0289C94.8108 35.0284 94.7608 35.0713 94.7608 35.0713C95.3466 35.6438 95.9329 36.2164 96.5188 36.789L96.46 36.7138C97.419 39.8495 98.3775 42.9847 99.3365 46.1205L99.2767 46.0428C99.3038 51.9604 99.3309 57.8781 99.358 63.7958L99.405 63.7258C97.4752 68.5725 95.5792 73.4336 93.5891 78.2558C93.1372 79.3502 92.3576 80.3098 91.9006 81.5443C94.9642 78.931 98.3601 77.9127 103.082 78.7807C101.597 80.3992 100.629 82.0724 99.1791 82.8811C97.3157 83.9199 95.0966 84.448 92.9654 84.8114C92.1792 84.9454 91.2064 83.9858 90.0449 83.3831C88.4689 85.1631 86.4005 87.4983 84.3322 89.8335C84.2703 89.9045 84.2192 89.9782 84.1778 90.0533C78.5362 94.1205 72.6476 97.6273 65.8537 99.5653C56.4716 102.242 47.1958 102.044 38.1639 98.5965C33.2333 96.7143 28.6473 93.9287 24.1328 91.6646C23.1989 92.0812 22.0952 92.7831 20.8923 93.0704C17.1667 93.9604 11.8021 91.7704 10.1545 88.6465C14.1076 86.915 17.8583 87.6021 21.7926 89.0314C19.9021 87.0704 18.0117 85.1089 16.1213 83.148L16.2061 83.2369C16.1606 82.992 16.1949 82.6853 16.0589 82.5115C11.5511 76.7548 9.37337 69.9528 7.3168 63.0955L7.3899 63.1803C7.54121 57.3869 7.35411 51.5576 7.9696 45.8137C8.34636 42.2977 9.9541 38.913 11.0087 35.4695L10.9443 35.5462C12.3583 33.1165 13.7718 30.6872 15.1858 28.2575L15.0937 28.3433C17.2342 25.7914 19.3741 23.239 21.5134 20.6881C21.701 20.5495 21.8902 20.4095 22.0788 20.2699C22.4668 20.25 22.8553 20.2305 23.2439 20.2111C23.2444 20.2116 23.1989 20.1615 23.1989 20.1615C21.2139 22.6163 19.1869 25.0384 17.2515 27.5316C12.7606 33.3174 10.0896 39.8168 8.80031 47.08C7.01979 57.1144 8.67354 66.4955 13.1527 75.4446C14.4946 78.1254 16.5287 80.4601 18.2453 82.9527C18.2463 82.9517 18.1651 82.8735 18.1651 82.8735Z" fill="#1F1D1B"/>
<path d="M34.5946 94.7798C30.4973 91.8174 29.0889 84.474 31.8699 80.5766C36.0065 82.7098 37.5412 90.7081 34.5946 94.7798Z" fill="#1F1D1B"/>
<path d="M75.0119 80.647C77.7611 84.66 76.6227 90.8251 72.3961 94.8135C69.2271 91.5259 70.7377 83.3462 75.0119 80.647Z" fill="#1F1D1B"/>
<path d="M84.1788 90.0527C84.2197 89.9775 84.2713 89.9044 84.3332 89.8329C85.4987 89.3759 86.6582 88.902 87.8309 88.4644C90.8214 87.3484 93.745 87.4246 96.6588 88.8319C94.7853 92.5785 87.7409 94.3069 82.9489 92.1072C83.3711 91.4023 83.775 90.7275 84.1788 90.0527Z" fill="#1F1D1B"/>
<path d="M24.6185 89.0426C24.3245 86.7243 23.686 84.3836 23.8363 82.0944C23.9764 79.9581 24.9538 77.877 25.6455 75.4866C29.6651 78.9945 29.3757 85.5834 26.6577 88.9947C26.3872 89.3341 25.281 89.0074 24.5566 88.9844C24.5505 88.9793 24.6185 89.0426 24.6185 89.0426Z" fill="#1F1D1B"/>
<path d="M80.8596 89.5338C77.3553 85.9825 77.7622 78.9412 80.4046 75.9757C83.9692 78.3952 84.3117 86.2023 80.8596 89.5338Z" fill="#1F1D1B"/>
<path d="M38.8392 85.5665C40.2235 87.0127 41.8287 88.0775 42.5326 89.5682C43.5836 91.794 44.0488 94.3091 44.5984 96.7378C44.6439 96.9397 43.0934 97.8804 42.8685 97.7091C40.2516 95.7185 36.5986 90.4142 38.8392 85.5665Z" fill="#1F1D1B"/>
<path d="M68.2645 85.9845C69.7286 91.0888 66.9313 96.9043 62.6255 98.0289C61.3255 93.7445 63.8002 88.3375 68.2645 85.9845Z" fill="#1F1D1B"/>
<path d="M18.1651 82.8735C18.1651 82.8735 18.2463 82.9515 18.2463 82.952C17.3916 80.0561 17.0327 77.1187 18.277 74.2779C19.0172 72.5879 20.1081 71.0517 21.2369 69.1092C23.4228 73.4493 22.5726 79.6042 19.7687 82.3023C19.396 82.6612 18.7074 82.691 18.1651 82.8735Z" fill="#1F1D1B"/>
<path d="M16.1223 83.1473C15.7828 83.6902 15.5579 84.5562 15.0845 84.7244C11.8977 85.8592 5.52502 82.2777 4.44178 78.7264C8.48489 77.5 11.615 79.2836 14.5662 81.6679C15.151 82.1402 15.6591 82.7071 16.2046 83.2337C16.2077 83.2368 16.1223 83.1473 16.1223 83.1473Z" fill="#1F1D1B"/>
<path d="M88.2168 82.6224C84.3971 80.2872 83.0025 73.3777 85.5269 69.8878C89.183 72.9064 90.1635 77.3396 88.2168 82.6224Z" fill="#1F1D1B"/>
<path d="M13.3812 74.2658C12.0531 68.9436 14.3218 63.7304 18.2187 62.8582C19.7406 67.1728 17.09 72.8824 13.3812 74.2658Z" fill="#1F1D1B"/>
<path d="M88.6022 62.4502C92.8974 64.4658 94.8532 69.2487 93.4617 73.9855C89.5689 72.4181 87.3697 67.3393 88.6022 62.4502Z" fill="#1F1D1B"/>
<path d="M10.452 75.6602C5.89561 75.8575 1.59178 72.3972 1.01412 68.2089C4.10077 66.686 10.5164 71.796 10.452 75.6602Z" fill="#1F1D1B"/>
<path d="M105.842 68.1282C105.434 72.3916 100.525 76.1745 96.2335 75.5325C96.9589 71.2629 101.556 67.7203 105.842 68.1282Z" fill="#1F1D1B"/>
<path d="M99.358 63.7958C100.91 60.4112 103.038 57.6756 106.981 56.6864C107.268 61.0976 104.261 64.8861 99.519 66.1406C99.4802 65.2966 99.4439 64.5089 99.4066 63.7237C99.4055 63.7262 99.358 63.7958 99.358 63.7958Z" fill="#1F1D1B"/>
<path d="M7.31781 63.0953C7.36893 64.0707 7.42005 65.0461 7.47475 66.09C2.76452 65.1749 -0.545014 60.9519 0.0745647 56.7855C3.2563 56.7723 4.57725 59.2521 6.17783 61.323C6.62871 61.9063 6.99013 62.5596 7.39143 63.1802C7.39091 63.1797 7.31781 63.0953 7.31781 63.0953Z" fill="#1F1D1B"/>
<path d="M96.5903 65.0655C92.4322 64.0544 89.6656 59.496 90.6154 55.2208C94.3768 55.9416 97.3275 60.8036 96.5903 65.0655Z" fill="#1F1D1B"/>
<path d="M10.0998 65.3008C9.75522 60.679 12.1257 56.6502 16.0369 55.0108C17.4325 58.805 14.6173 63.8091 10.0998 65.3008Z" fill="#1F1D1B"/>
<path d="M9.72708 47.0251C10.4157 43.0065 15.1085 39.4623 18.5167 40.3876C17.5183 44.5365 13.4139 47.636 9.72708 47.0251Z" fill="#1F1D1B"/>
<path d="M105.52 45.7175C106.694 49.9355 104.156 55.0634 100.809 55.5224C99.6862 51.509 101.687 47.2149 105.52 45.7175Z" fill="#1F1D1B"/>
<path d="M4.02923 35.5314C7.43027 39.0582 8.2073 41.853 7.0985 46.2059C3.53234 45.254 1.76562 39.3961 4.02923 35.5314Z" fill="#1F1D1B"/>
<path d="M99.3365 46.1205C98.8872 42.2123 99.2041 38.5525 102.607 35.859C104.946 38.6455 103.355 45.3965 100.113 46.5278C99.9152 46.5968 99.563 46.2216 99.2803 46.0483C99.2772 46.0431 99.3365 46.1205 99.3365 46.1205Z" fill="#1F1D1B"/>
<path d="M98.1848 55.4881C95.7607 56.2069 94.2961 54.7898 92.9986 53.4571C91.9041 52.3325 91.1153 50.8847 90.3235 49.504C90.0367 49.004 90.1323 48.2848 90.0536 47.6652C90.7555 47.6872 91.58 47.4766 92.1383 47.7705C95.1784 49.3711 97.215 51.8432 98.1848 55.4881Z" fill="#1F1D1B"/>
<path d="M88.18 40.2983C91.3755 39.3966 95.8542 42.7695 97.2508 46.9455C94.2086 47.8529 89.4979 44.4692 88.18 40.2983Z" fill="#1F1D1B"/>
<path d="M16.6667 47.4249C16.8436 51.5749 12.9022 55.6287 9.09323 55.411C9.73275 51.122 12.162 48.5092 16.6667 47.4249Z" fill="#1F1D1B"/>
<path d="M11.0087 35.4695C10.6233 35.878 10.2383 36.2858 9.85596 36.6917C6.8644 34.445 6.46719 28.3474 9.18731 26.0255C11.5399 28.8913 11.5306 32.1631 10.9443 35.5462L11.0087 35.4695Z" fill="#1F1D1B"/>
<path d="M1.49319 45.8479C4.80426 46.9807 6.93035 51.5611 5.99996 55.5552C2.31674 54.3855 0.188602 49.8021 1.49319 45.8479Z" fill="#1F1D1B"/>
<path d="M96.5188 36.789C96.0337 33.9942 94.7096 31.2187 96.2933 28.3749C96.6813 27.6781 97.1389 27.0202 97.6 26.2881C100.734 29.4791 99.9597 35.2874 96.4554 36.708C96.4605 36.7141 96.5188 36.789 96.5188 36.789Z" fill="#1F1D1B"/>
<path d="M94.6288 38.3464C90.5934 39.2916 86.3964 37.3184 85.0939 33.9884C88.6794 32.3546 93.2194 34.8549 94.6288 38.3464Z" fill="#1F1D1B"/>
<path d="M21.7194 33.7701C20.171 37.6348 16.3865 39.3607 12.5075 38.1307C13.9297 34.7251 17.5127 32.9803 21.7194 33.7701Z" fill="#1F1D1B"/>
<path d="M45.9668 90.7807C50.0974 91.7827 52.5532 95.1096 52.1509 98.9738C48.897 98.7458 45.6366 94.5381 45.9668 90.7807Z" fill="#1F1D1B"/>
<path d="M91.0882 27.0566C89.8603 24.2603 89.1728 21.4508 90.7877 18.5088C93.4572 20.6466 94.4929 23.9311 93.5855 26.9109C93.2143 28.1286 92.5896 28.6306 91.35 28.1066C91.2626 27.7565 91.1756 27.4063 91.0882 27.0566Z" fill="#1F1D1B"/>
<path d="M15.1858 28.2575C14.651 28.0617 13.8147 28.0161 13.6306 27.646C12.1987 24.7653 13.1731 21.1368 15.9822 18.7254C17.616 20.9834 17.1953 23.3053 16.3216 25.6333C15.9735 26.5612 15.5047 27.444 15.0927 28.3453C15.0942 28.3427 15.1858 28.2575 15.1858 28.2575Z" fill="#1F1D1B"/>
<path d="M16.5148 30.7029C18.1589 27.4062 23.1528 26.1844 26.3172 28.0754C23.7351 31.2995 20.3601 31.2417 16.5148 30.7029Z" fill="#1F1D1B"/>
<path d="M84.5556 23.1509C81.2691 25.3343 78.2458 25.0179 75.3008 22.3243C77.0404 19.7116 81.949 20.6885 84.5556 23.1509Z" fill="#1F1D1B"/>
<path d="M90.2934 30.5945C85.7467 31.7555 82.7909 30.9125 80.7108 27.97C83.8823 26.1736 88.7326 27.4246 90.2934 30.5945Z" fill="#1F1D1B"/>
<path d="M22.0788 20.2699C21.8902 20.4095 21.701 20.5495 21.5134 20.6881C20.9143 20.501 19.874 20.4359 19.7841 20.1092C19.0275 17.3687 20.5693 13.8557 23.2454 12.138C24.7105 15.1679 23.2623 17.7031 22.0788 20.2699Z" fill="#1F1D1B"/>
<path d="M83.7218 12.244C86.5809 13.841 87.8329 17.5533 86.7103 21.1057C83.4698 19.3911 82.1964 15.6159 83.7218 12.244Z" fill="#1F1D1B"/>
<path d="M22.4816 23.1709C25.5299 20.5244 29.3553 20.1558 31.6153 22.2906C29.368 24.8676 25.1869 25.2704 22.4816 23.1709Z" fill="#1F1D1B"/>
<path d="M67.7533 10.8759C71.0266 9.74462 74.196 11.2976 75.7506 14.6476C72.8643 15.8535 69.7378 14.4293 67.7533 10.8759Z" fill="#1F1D1B"/>
<path d="M26.8933 16.5893C26.4282 16.0939 25.6491 15.6532 25.5525 15.094C25.1767 12.9219 27.6377 9.50755 30.1809 8.6518C30.9738 12.1898 28.6539 14.3323 26.8116 16.6649L26.8933 16.5893Z" fill="#1F1D1B"/>
<path d="M27.7854 18.6563C30.5331 16.3237 33.8468 16.1059 36.3905 17.9739C34.5195 20.398 30.732 20.7615 27.7854 18.6563Z" fill="#1F1D1B"/>
<path d="M70.0767 18.1053C73.077 15.9853 76.5159 16.1653 78.5765 18.4238C76.7699 20.5008 73.2825 20.4246 70.0767 18.1053Z" fill="#1F1D1B"/>
<path d="M31.191 14.5944C32.8197 11.3933 35.6712 9.98438 38.949 10.7604C37.897 13.8123 34.4571 15.512 31.191 14.5944Z" fill="#1F1D1B"/>
<path d="M80.7415 16.5488C77.3108 14.3364 76.1355 11.7502 77.0398 8.70341C80.1403 9.8393 81.539 12.6867 80.7415 16.5488Z" fill="#1F1D1B"/>
<path d="M91.0882 27.0566C91.1756 27.4063 91.2626 27.7565 91.35 28.1066C92.4874 30.428 93.6243 32.7498 94.7617 35.0717C94.7617 35.0722 94.8108 35.0289 94.8103 35.0289C92.812 32.0337 90.8142 29.0385 88.4622 25.5132C89.6799 26.2289 90.3843 26.6425 91.0882 27.0566Z" fill="#1F1D1B"/>
<path d="M26.8116 16.6649C27.6111 16.3485 28.4101 16.0324 29.2096 15.716C29.3113 15.901 29.4126 16.0861 29.5143 16.2712C27.4097 17.5681 25.305 18.865 23.1999 20.1614C23.1994 20.1609 23.2449 20.211 23.2449 20.211C24.4605 19.0035 25.6767 17.7962 26.8933 16.5893L26.8116 16.6649Z" fill="#1F1D1B"/>
<path d="M73.8735 98.1185C76.5558 94.3525 84.1323 93.9348 88.5461 97.3093C85.5765 101.021 78.229 101.426 73.8735 98.1185Z" fill="#1F1D1B"/>
<path d="M18.3444 97.5505C22.2792 94.1832 28.8977 94.2747 33.1908 97.7555C29.7203 101.366 22.0507 101.26 18.3444 97.5505Z" fill="#1F1D1B"/>
<path d="M63.5385 101.378C67.3781 98.8725 74.7931 99.9435 77.3144 103.95C72.9237 106.726 67.1624 105.703 63.5385 101.378Z" fill="#1F1D1B"/>
<path d="M29.5081 104.18C32.2931 100.115 40.2879 98.7202 43.1465 101.579C40.6513 105.285 34.4883 106.507 29.5081 104.18Z" fill="#1F1D1B"/>
<path d="M65.024 106.703C60.3511 107.766 56.1306 105.899 54.8122 102.336C58.3513 100.926 62.5595 102.672 65.024 106.703Z" fill="#1F1D1B"/>
<path d="M41.8762 106.624C44.261 102.699 47.7985 101.189 51.8851 102.221C51.1341 105.595 46.2598 107.81 41.8762 106.624Z" fill="#1F1D1B"/>
<path d="M60.7877 90.9699C61.0183 95.082 57.9704 98.8946 54.6538 98.8532C54.4897 94.8791 56.6357 92.0537 60.7877 90.9699Z" fill="#1F1D1B"/>
<path d="M53.9996 0L56.7805 5.925L63 6.87531L58.4993 11.4869L59.5623 18L53.9996 14.925L48.4377 18L49.4998 11.4869L45 6.87531L51.2186 5.925L53.9996 0Z" fill="#FF9900"/>
<path d="M66.5312 31.0938V37.6562H50.4062L49.2812 47.125C50.9688 45.8542 53.0625 45.2083 55.5625 45.1875C59.5 45.125 62.5521 46.3021 64.7188 48.7188C66.8854 51.1354 67.9688 54.4688 67.9688 58.7188C67.9688 62.9479 66.7604 66.3333 64.3438 68.875C61.9271 71.3958 58.5312 72.6562 54.1562 72.6562C51.5938 72.6562 49.2812 72.2083 47.2188 71.3125C45.1771 70.3958 43.5417 69.0521 42.3125 67.2812C41.1042 65.5104 40.5208 63.4479 40.5625 61.0938L40.625 60.9688L48.5312 60.5625C48.5312 62.375 49.0417 63.7917 50.0625 64.8125C51.0833 65.8333 52.4792 66.3438 54.25 66.3438C56.0208 66.3438 57.375 65.6979 58.3125 64.4062C59.25 63.0938 59.7188 61.2604 59.7188 58.9062C59.7188 56.5312 59.2188 54.6458 58.2188 53.25C57.2396 51.8542 55.8125 51.1562 53.9375 51.1562C51.1042 51.1562 49.3021 52.2396 48.5312 54.4062L41.3125 53.9062L43.6875 31.0938H66.5312Z" fill="#FF9900"/>
</svg>
