<svg width="97" height="77" viewBox="0 0 97 77" fill="none" xmlns="http://www.w3.org/2000/svg">
<path d="M21 43L15.5 20C15.6667 19.5 16.1 18.4 16.5 18C16.9 17.6 18 17.1667 18.5 17L79.5 1.5C80.1667 1.33333 81.7 1 82.5 1C83.3 1 84.1667 2 84.5 2.5L95 43C95.8333 43.6667 97 45.3 95 46.5C93 47.7 92.8333 48.3333 93 48.5L43.5 61.5L29 56L28 53C27.5 51.5 26.5 48 25.5 46.5C24.7 45.3 22.1667 43.6667 21 43Z" fill="#FF9900"/>
<path d="M22.9201 55.8937C22.888 60.5562 19.4359 63.8777 14.6201 63.8789C10.2595 63.8802 6.74274 60.2773 6.7687 55.8356C6.79671 51.0251 10.2744 47.5771 15.1099 47.5648C19.494 47.5532 22.9523 51.241 22.9201 55.8937ZM15.1425 49.703C11.6772 49.5774 8.92549 52.1202 8.80972 55.5546C8.69519 58.9494 11.3365 61.7868 14.7017 61.8841C17.9708 61.9784 20.9183 59.1699 20.9974 55.885C21.0752 52.6715 18.3746 49.82 15.1425 49.703Z" fill="black"/>
<path d="M46.508 62.0028C48.9664 63.1321 51.4223 64.2659 53.8836 65.389C56.1891 66.4408 58.4835 67.5202 60.8145 68.5119C62.3566 69.1678 62.4489 70.0021 61.3217 71.1079C57.1795 75.1706 51.0948 77.952 44.6681 74.6614C43.4329 74.0289 42.4532 73.5181 43.4255 71.9109C43.6274 71.5767 43.4972 70.6201 43.2813 70.5311C42.5175 70.2172 41.5423 69.8245 40.8402 70.0536C37.5129 71.1404 37.5356 71.2101 34.7728 70.1311C32.747 72.2772 32.7478 72.2755 29.821 70.9831C29.4449 70.817 29.0349 70.7198 28.6752 70.5257C25.622 68.8769 22.9374 68.2235 19.1672 69.7228C11.6891 72.6966 3.38619 68.3385 0.948417 61.143C-1.88322 52.7844 1.7823 44.5441 9.85616 41.7623C12.0414 41.0096 14.5512 41.1456 16.9202 41.008C17.8332 40.9548 18.768 41.2766 20.0571 41.4871C19.096 37.6898 18.2221 34.2047 17.3306 30.7238C16.5828 27.804 15.7827 24.8973 15.0642 21.9705C14.2517 18.6622 15.2384 17.0262 18.4784 16.1878C37.5113 11.2632 56.5446 6.3415 75.5784 1.42022C77.1703 1.00864 78.7619 0.595407 80.3583 0.20154C83.2295 -0.507503 85.1507 0.662978 85.8997 3.57619C89.2438 16.5816 92.5843 29.5883 95.9272 42.5942C96.951 46.5769 95.6738 48.7625 91.7121 49.7769C77.0463 53.5318 62.3793 57.2826 47.7148 61.0424C47.3312 61.1409 46.9707 61.3267 46.5991 61.4718C46.569 61.6489 46.5385 61.8257 46.508 62.0028ZM21.0295 38.178C21.9054 40.1675 22.2205 42.3457 23.4783 43.4495C26.4509 46.0574 28.3741 49.0695 29.306 52.8677C29.4964 53.643 30.2441 54.5268 30.9696 54.8844C34.4086 56.5793 37.9097 58.1552 41.4364 59.661C42.1759 59.9766 43.1663 60.0294 43.9574 59.8444C47.8252 58.9392 51.6654 57.9158 55.5134 56.9283C67.3282 53.8964 79.1442 50.8682 90.9561 47.8244C94.147 47.0021 94.6348 46.1081 93.8227 42.958C92.0948 36.254 90.3414 29.5558 88.7144 22.8271C88.3259 21.2207 87.7705 20.9253 86.1728 21.3431C70.9908 25.3139 55.7837 29.1903 40.5864 33.1035C34.2932 34.7242 28.0049 36.3673 21.0295 38.178ZM16.6401 19.8504C17.312 22.4625 17.8868 24.578 18.3964 26.7093C19.007 29.2628 18.9864 29.281 21.5218 28.6251C27.0981 27.1827 32.6683 25.716 38.2455 24.2781C53.5721 20.3267 68.8979 16.3711 84.236 12.4633C85.521 12.1358 85.9615 11.6999 85.533 10.3428C84.9154 8.38747 84.5051 6.36664 83.9921 4.37794C83.4409 2.2401 82.7384 1.79102 80.6064 2.32579C76.7554 3.29192 72.9173 4.30873 69.0713 5.29422C52.2723 9.59874 35.4682 13.8835 18.6852 18.2494C17.8637 18.4632 17.2239 19.377 16.6401 19.8504ZM58.8897 70.0767C58.4163 69.811 57.971 69.5168 57.4914 69.2984C48.266 65.0948 39.0575 60.8525 29.7872 56.7495C28.1899 56.0425 27.5175 55.1588 27.2613 53.4634C26.2606 46.8484 20.573 42.4982 13.6988 42.9233C7.53333 43.3049 2.21942 48.9179 2.05833 55.2193C1.7963 65.4772 11.7843 71.6662 20.945 66.8289C22.527 65.9934 23.7779 65.9213 25.3278 66.6975C27.5056 67.788 29.7744 68.6965 31.9609 69.6639C33.7308 67.1317 33.7036 67.1919 36.4442 68.4435C37.1558 68.7686 38.3303 68.9487 38.8898 68.582C41.0116 67.1907 42.866 67.8288 44.8481 68.8048C46.0375 69.3903 46.5224 70.0058 45.9967 71.3662C45.8085 71.854 46.0375 72.9277 46.4141 73.1432C49.9581 75.1694 56.3036 73.6013 58.8897 70.0767ZM21.0187 35.9586C21.8398 35.7851 22.6371 35.6483 23.4174 35.4469C44.1098 30.1041 64.8006 24.7531 85.493 19.41C86.6178 19.1195 87.8571 19.1199 87.3524 17.2717C86.4571 13.9927 86.5267 13.9618 84.3465 14.525C63.8592 19.8195 43.3723 25.1153 22.8871 30.4177C19.2937 31.3479 19.2204 31.5206 20.6088 35.1053C20.7044 35.3525 20.8379 35.5849 21.0187 35.9586Z" fill="#1F1D1B"/>
<path d="M35.247 43.1319C35.1106 42.5967 35.4338 42.0523 35.969 41.9159L62.1325 35.2471C62.6677 35.1107 63.2121 35.4339 63.3485 35.9691C63.4849 36.5043 63.1616 37.0487 62.6265 37.1851L36.463 43.8539C35.9278 43.9903 35.3834 43.667 35.247 43.1319Z" fill="#1F1D1B"/>
<path d="M37.247 49.1319C37.1106 48.5967 37.4338 48.0523 37.969 47.9159L64.1325 41.2471C64.6677 41.1107 65.2121 41.4339 65.3485 41.9691C65.4849 42.5043 65.1616 43.0487 64.6265 43.1851L38.463 49.8539C37.9278 49.9903 37.3834 49.667 37.247 49.1319Z" fill="#1F1D1B"/>
</svg>
