<svg width="119" height="69" viewBox="0 0 119 69" fill="none" xmlns="http://www.w3.org/2000/svg">
<path d="M36.5 10L22 1.5L1 35L15.5 44L36.5 10Z" fill="#FF9900"/>
<path d="M97 2L83 10L103 42L117 33.5L97 2Z" fill="#1F1D1B"/>
<path d="M43.7183 63.5699C37.7572 64.8102 36.0619 63.8717 34.5465 58.6323C29.0587 58.4683 27.842 57.4277 26.9456 52.0445C26.3194 51.8988 25.644 51.7767 24.99 51.5838C21.9391 50.6825 20.378 48.0185 21.0933 44.9683C21.7298 42.2537 21.7298 42.2537 18.8752 40.962C17.9811 42.35 17.0718 43.7618 16.0628 45.3282C10.6659 42.0463 5.39003 38.8379 0 35.5602C3.48657 29.7878 6.91493 24.1052 10.3498 18.4264C13.8203 12.6886 17.3343 6.97632 20.7433 1.20202C21.543 -0.152428 22.2218 -0.328963 23.5488 0.505013C28.2544 3.4616 33.0235 6.31736 37.8824 9.28041C36.9685 10.9012 36.1247 12.3975 35.2812 13.8939C35.3812 14.0918 35.4817 14.2896 35.5817 14.4874C39.6474 14.1823 43.7545 14.1359 47.7669 13.4952C51.4334 12.91 55.0227 12.5315 58.7014 13.1349C59.4075 13.2505 60.2278 13.1726 60.8963 12.9203C63.1353 12.0761 65.3405 12.0418 67.5795 12.8511C70.0168 13.7318 72.4982 14.5053 74.8837 15.5086C76.4063 16.1489 77.7364 16.1718 79.2255 15.4641C80.6313 14.796 82.146 14.3569 83.8093 13.7448C83.0785 12.4508 82.4709 11.3749 81.7914 10.1715C82.16 9.82713 82.4678 9.43336 82.8662 9.18339C87.2632 6.42237 91.704 3.72983 96.0626 0.910208C97.2926 0.114278 97.8972 0.351301 98.6094 1.50296C105.169 12.105 111.762 22.6853 118.466 33.4642C113.199 36.7697 107.965 40.0539 102.569 43.44C101.456 41.7758 100.386 40.1779 99.1847 38.3828C96.8475 40.5256 94.6043 42.5421 92.4246 44.6251C92.113 44.923 92.0662 45.5341 91.9699 46.0146C91.4418 48.6565 90.1943 50.5741 87.2826 51.0165C86.8919 51.0759 86.3341 51.6268 86.2717 52.0172C85.4937 56.886 84.528 57.8013 79.5607 58.1997C79.4428 58.2092 79.3313 58.296 79.2171 58.3477C78.0925 63.5087 76.899 64.2947 71.2 64.0592C69.8357 65.696 68.9389 67.3662 67.5476 68.2934C65.7381 69.4987 63.6695 69.0578 61.8684 67.7296C60.3412 66.6034 58.784 64.706 57.2153 64.6805C55.7132 64.6562 54.1838 66.6095 52.6585 67.6827C49.5444 69.8742 45.3783 68.5453 44.1137 64.9564C43.9695 64.5447 43.8728 64.1167 43.7183 63.5699ZM56.9505 15.4782C56.9064 15.2556 56.8622 15.0334 56.8181 14.8108C55.9586 14.7214 55.0805 14.4756 54.2427 14.573C51.9877 14.8352 49.7613 15.4013 47.5032 15.5603C43.4627 15.8449 39.4035 15.8598 35.3622 16.1352C34.5918 16.1877 33.5676 16.7364 33.1692 17.3744C29.2135 23.7076 25.3739 30.1131 21.481 36.4859C19.9302 39.0247 19.9432 38.9615 22.2819 40.6904C23.1817 41.3554 23.7463 41.3737 24.5213 40.5473C25.2073 39.8157 26.0766 39.2534 26.8779 38.6336C30.4771 35.8497 34.6572 37.1821 35.9694 41.5175C36.0554 41.8021 36.2438 42.0559 36.3781 42.3119C42.7718 40.1554 44.6733 41.2934 45.9943 47.9861C50.2007 49.0336 50.1805 49.0556 51.8561 53.6003C52.0071 54.01 52.8868 54.3391 53.4506 54.3776C56.6378 54.5944 59.193 56.7893 58.6694 59.86C58.1729 62.7721 59.5826 63.9268 61.5526 65.1306C62.0358 65.4258 62.4783 65.7877 62.9421 66.116C64.6652 67.335 66.4495 67.1752 67.6796 65.6929C68.8617 64.2685 68.6775 62.6964 67.102 61.1574C66.7003 60.7651 66.2068 60.4646 65.7468 60.1344C63.0733 58.2134 60.3693 56.3324 57.7506 54.3391C57.3397 54.0264 57.3127 53.2084 57.1084 52.624C57.6779 52.6761 58.2536 52.6932 58.8136 52.7971C59.0408 52.8393 59.2352 53.0665 59.4406 53.2145C63.0885 55.8359 66.6885 58.5284 70.4132 61.0353C71.4934 61.7624 72.9266 62.2923 74.2068 62.3121C75.8169 62.3372 76.7559 61.0262 77.0972 59.4807C77.475 57.7686 76.5912 56.5557 75.287 55.6137C70.979 52.5011 66.6375 49.4342 62.3615 46.2782C61.9 45.9377 61.782 45.1311 61.5047 44.5407C62.1617 44.6061 62.8614 44.5532 63.4633 44.7705C64.0382 44.9778 64.5145 45.4625 65.0285 45.8327C69.3909 48.9769 73.7415 52.1366 78.1176 55.2614C80.1074 56.682 82.1764 56.4438 83.4974 54.7222C84.7594 53.0779 84.3736 50.8902 82.418 49.4224C79.5333 47.2572 76.5813 45.1814 73.6555 43.0709C71.2948 41.3684 68.9039 39.7061 66.5945 37.9369C66.2308 37.6584 66.2289 36.9078 66.0596 36.3755C66.5713 36.3668 67.1256 36.2294 67.5829 36.3828C68.1034 36.557 68.5448 36.9793 69.007 37.313C73.9854 40.9068 78.96 44.506 83.9372 48.101C85.9605 49.5624 87.8278 49.4604 89.1629 47.8241C90.4298 46.2714 90.1422 44.2603 88.2547 42.7038C81.0776 36.7857 73.8804 30.8908 66.6253 25.0689C66.1056 24.6519 64.9517 24.6085 64.2763 24.8684C59.7682 26.6037 55.1935 26.9906 50.4811 25.9485C48.1496 25.433 46.8001 24.2753 46.8168 22.4852C46.8347 20.5383 47.9902 19.4852 49.7864 18.781C52.2305 17.8211 54.5677 16.5914 56.9505 15.4782ZM22.4881 2.17676C15.7912 13.2098 9.25592 23.9766 2.64422 34.8693C6.52648 37.2578 10.1957 39.4721 13.8143 41.7659C15.0394 42.5425 15.6945 42.4085 16.4714 41.0975C20.3689 34.5185 24.3748 28.0038 28.3354 21.4625C30.6167 17.6947 32.885 13.9186 35.2743 9.95497C30.9949 7.35145 26.863 4.83811 22.4881 2.17676ZM91.4742 42.7894C93.5017 40.9304 95.5805 39.0882 97.5536 37.1391C97.8192 36.8766 97.7537 35.9513 97.5019 35.5423C93.9894 29.8373 90.4321 24.1596 86.8546 18.4952C84.856 15.3309 84.7849 15.2453 81.3713 16.758C78.5696 17.9999 75.9307 18.3503 73.0628 16.9235C71.1517 15.9728 69.05 15.4013 67.0237 14.6879C64.9547 13.9597 62.9131 14.0465 60.9549 15.0638C57.2613 16.9825 53.567 18.9016 49.9093 20.8876C49.4299 21.1478 48.8421 21.8312 48.8809 22.2679C48.9296 22.8215 49.4797 23.4409 49.9777 23.8115C50.3978 24.1242 51.048 24.1406 51.6031 24.2578C56.1774 25.2234 60.5394 24.4826 64.715 22.5175C65.6563 22.0746 66.2544 22.1641 67.067 22.8504C70.2538 25.5426 73.5342 28.1236 76.7673 30.761C81.6125 34.7129 86.4475 38.6769 91.4742 42.7894ZM115.793 32.8311C109.465 22.6792 103.265 12.732 96.978 2.64549C92.6114 5.40081 88.4826 8.00624 84.2811 10.6577C86.1922 13.7113 87.9381 16.4879 89.6712 19.2725C93.8121 25.9265 97.9417 32.5876 102.093 39.2347C102.533 39.9382 102.878 41.0069 104.086 40.2433C107.929 37.8144 111.769 35.3799 115.793 32.8311ZM33.259 56.6113C33.5272 56.5055 34.2752 56.3925 34.7805 55.9812C37.4753 53.7894 40.1743 51.5937 42.7409 49.2557C44.3168 47.8203 44.3351 46.0146 43.1119 44.5133C41.7784 42.8765 39.8304 42.539 38.0601 43.9125C35.3656 46.0028 32.7652 48.2194 30.194 50.4618C28.9742 51.5256 28.7539 52.966 29.3749 54.4567C30.0053 55.9705 31.2315 56.6272 33.259 56.6113ZM40.847 62.2634C40.9832 62.217 41.6756 62.158 42.1284 61.7981C44.4055 59.986 46.6875 58.1696 48.8325 56.2064C50.2813 54.8801 50.233 52.8253 48.9851 51.4088C47.7406 49.9965 45.7116 49.6663 44.1806 50.8377C41.9709 52.5289 39.7014 54.2044 37.8101 56.2179C37.042 57.0359 36.8027 58.8023 37.0382 59.9959C37.3296 61.4751 38.6745 62.3388 40.847 62.2634ZM34.2262 42.8008C34.2235 39.9953 31.249 38.1763 28.857 39.7076C27.0072 40.8916 25.2807 42.353 23.7554 43.9372C21.874 45.8913 23.093 49.1911 25.7449 49.7496C28.2498 50.2769 34.2284 45.3788 34.2262 42.8008ZM56.9897 60.0126C57.0738 57.3946 54.0673 55.3766 51.7811 56.7383C49.907 57.855 48.1317 59.2791 46.6525 60.8808C44.6718 63.0247 46.046 66.3142 48.9223 66.77C51.2584 67.1402 56.9132 62.4038 56.9897 60.0126Z" fill="#1F1D1B"/>
<path d="M14 29.5C14 30.8807 12.8807 32 11.5 32C10.1193 32 9 30.8807 9 29.5C9 28.1193 10.1193 27 11.5 27C12.8807 27 14 28.1193 14 29.5Z" fill="white"/>
</svg>
