<svg width="76" height="116" viewBox="0 0 76 116" fill="none" xmlns="http://www.w3.org/2000/svg">
<path d="M63.0966 55.7041C63.0966 45.016 63.0966 34.7051 63.0966 23.9575C58.364 23.9575 53.9748 23.9502 49.5856 23.9598C45.2932 23.9694 45.2954 23.9768 45.2983 19.7607C45.3011 15.7075 45.3876 11.6504 45.2179 7.60456C45.1863 6.84257 44.1278 5.48547 43.5327 5.47982C30.9144 5.35593 18.2944 5.38592 5.37235 5.38592C5.23489 6.64515 5.01655 7.71881 5.01541 8.7925C4.99958 32.9232 5.04709 57.0544 4.95658 81.1851C4.94696 83.8184 5.76947 84.5674 8.32583 84.5284C16.7942 84.3982 25.266 84.4791 33.7655 84.4791C33.2457 88.8813 32.3547 89.714 28.4661 89.7123C19.0519 89.7078 9.63711 89.7107 0 89.7107C0 59.776 0 30.0546 0 0.129507C0.929996 0.0819886 1.74741 0.00393181 2.56427 0.00393181C16.9854 0.00223473 31.4072 -0.0226662 45.8278 0.0780268C46.9767 0.0859465 48.4113 0.687853 49.2185 1.50358C55.1809 7.52762 61.0635 13.6331 66.8432 19.8325C67.6872 20.7382 68.2455 22.2724 68.2648 23.5259C68.3949 32.0073 68.3943 40.4921 68.3332 48.9752C68.2987 53.9041 69.4052 53.18 63.0966 55.7041ZM49.2044 8.95598C48.8989 9.10702 48.594 9.25807 48.2885 9.40911C48.2885 12.8089 48.2444 16.2099 48.3479 19.6063C48.3598 20.0022 49.18 20.6912 49.6416 20.7043C52.9526 20.7993 56.2676 20.7552 59.5814 20.7552C59.8071 20.4005 60.0328 20.0452 60.2591 19.6905C56.5736 16.1125 52.8887 12.534 49.2044 8.95598Z" fill="#1F1D1B"/>
<path d="M34.441 76.6699C35.7896 75.6783 36.7501 74.7528 37.8883 74.1826C39.9021 73.1739 39.9921 71.8955 38.9393 70.1294C38.3205 69.0919 37.9053 67.9334 37.1206 66.2244C43.0672 67.112 45.7372 64.6637 44.5623 58.8348C47.0338 59.754 49.2287 61.3725 50.9705 60.9805C52.5329 60.6286 53.5964 58.0638 54.859 56.5013C55.1102 56.542 55.3596 56.5059 55.4445 56.6071C56.7586 58.1707 57.8153 60.6558 59.4162 61.0749C61.0098 61.4919 63.1453 59.8389 65.4176 58.9468C65.5494 60.365 65.8249 61.5467 65.7321 62.699C65.5353 65.1321 66.5501 66.1401 68.9555 66.0858C70.1457 66.0587 71.3427 66.3511 72.8531 66.5384C72.181 68.051 71.7409 69.3917 71.027 70.5661C70.0048 72.2485 70.3934 73.248 72.0798 74.1401C73.2966 74.7839 74.3465 75.7433 76 76.9471C70.3804 78.9134 69.0618 82.1305 73.4437 87.0469C71.1933 87.2048 69.7565 87.418 68.3264 87.3773C66.519 87.3258 65.7746 88.0646 65.7706 89.8646C65.7678 91.3207 65.5212 92.7768 65.365 94.4139C63.0151 93.5529 60.8112 91.939 59.1079 92.3588C57.5438 92.744 56.5188 95.3196 55.0287 97.2215C54.1796 96.0884 53.2083 95.0865 52.5906 93.9009C51.5729 91.947 50.3516 91.6805 48.5318 92.8074C47.5169 93.4359 46.3437 93.8092 44.8808 94.4575C44.6641 92.8153 44.3445 91.4571 44.3389 90.0977C44.3298 88.0256 43.4202 87.2291 41.3893 87.3581C40.1946 87.4339 38.9835 87.2399 37.2564 87.1358C37.9528 85.4738 38.3646 84.0652 39.0972 82.849C40.0204 81.3159 39.8948 80.3203 38.2814 79.4101C37.0629 78.7222 35.9836 77.786 34.441 76.6699ZM55.0304 87.5323C61.0867 87.5312 65.946 82.6232 65.8928 76.5607C65.8402 70.5814 60.8717 65.7679 54.7781 65.7934C49.145 65.8171 44.2427 70.7912 44.2025 76.5234C44.1607 82.5916 49.0205 87.5329 55.0304 87.5323Z" fill="#FF9900"/>
<path d="M51.0876 115.542C47.8959 112.909 45.1817 110.772 42.6186 108.467C42.1321 108.029 41.9154 106.819 42.1366 106.152C42.9297 103.757 43.6889 101.272 44.999 99.1537C45.9375 97.6365 47.7347 96.6505 49.4103 95.2012C51.0004 97.5291 52.2749 99.3404 53.4799 101.197C53.765 101.636 54.0382 102.274 53.9403 102.741C53.0777 106.841 52.1301 110.924 51.0876 115.542Z" fill="#FF9900"/>
<path d="M59.427 115.525C58.372 110.946 56.7756 106.947 56.7869 102.952C56.7937 100.617 59.2364 98.1791 60.9685 96.1104C61.1637 95.8773 64.4079 97.3923 65.2932 98.725C66.7668 100.943 67.5497 103.644 68.4526 106.202C68.6687 106.813 68.4735 107.954 68.0244 108.354C65.3764 110.706 62.5971 112.911 59.427 115.525Z" fill="#FF9900"/>
<path d="M47.2442 36.9565H21.0986C20.4113 36.9565 19.8495 36.3942 19.8495 35.7074C19.8495 35.0201 20.4118 34.4584 21.0986 34.4584H47.2437C47.931 34.4584 48.4927 35.0207 48.4927 35.7074C48.4933 36.3948 47.931 36.9565 47.2442 36.9565Z" fill="#1F1D1B"/>
<path d="M47.2007 46.1049H21.0556C20.3683 46.1049 19.8065 45.5426 19.8065 44.8559C19.8065 44.1686 20.3688 43.6069 21.0556 43.6069H47.2007C47.888 43.6069 48.4497 44.1691 48.4497 44.8559C48.4497 45.5432 47.8874 46.1049 47.2007 46.1049Z" fill="#1F1D1B"/>
<path d="M47.2007 55.3861H21.0556C20.3683 55.3861 19.8065 54.8238 19.8065 54.137C19.8065 53.4497 20.3688 52.888 21.0556 52.888H47.2007C47.888 52.888 48.4497 53.4503 48.4497 54.137C48.4497 54.8243 47.8874 55.3861 47.2007 55.3861Z" fill="#1F1D1B"/>
<path d="M40.0294 64.6697H20.7337C20.0464 64.6697 19.4847 64.1074 19.4847 63.4207C19.4847 62.7334 20.047 62.1717 20.7337 62.1717H40.0294C40.7167 62.1717 41.2785 62.7339 41.2785 63.4207C41.2785 64.1074 40.7167 64.6697 40.0294 64.6697Z" fill="#1F1D1B"/>
</svg>
