<svg width="89" height="90" viewBox="0 0 89 90" fill="none" xmlns="http://www.w3.org/2000/svg">
<path d="M62.6677 0C66.9666 5.39101 71.0119 10.4641 75.4415 16.0193C68.4706 16.7725 61.9739 17.4747 55.1532 18.2117C55.7713 16.3742 56.2519 14.9444 56.8054 13.2977C50.1979 11.125 43.7311 10.7919 37.2429 12.325C21.9682 15.9338 10.7966 27.7834 8.93913 43.236C6.48351 63.6647 20.4715 80.5409 39.031 83.5815C58.3142 86.7404 75.6852 78.0274 84.3933 60.9729C87.1892 55.4974 88.4465 49.5674 88.7159 43.1521C90.0298 50.8508 86.6578 63.3238 81.265 70.7624C71.1957 84.6517 57.4324 90.9946 40.3229 89.8738C21.4053 88.6353 4.69379 73.6549 0.905852 54.9136C-4.32889 29.0141 13.6997 4.59399 40.1244 1.94488C45.9893 1.35688 51.8768 1.74731 57.4602 3.798C60.0372 4.74464 61.3721 4.23223 61.954 1.61178C62.0459 1.19893 62.2975 0.821006 62.6677 0Z" fill="#1F1D1B"/>
<path d="M32.8916 52.5723V56.0146H19.459V53.1143L25.626 46.625C27.1494 44.877 27.9111 43.4658 27.9111 42.3916C27.9111 41.6299 27.7207 41.0342 27.3398 40.6045C26.959 40.1748 26.4219 39.96 25.7285 39.96C25.0352 39.96 24.4932 40.2383 24.1025 40.7949C23.7119 41.3516 23.5166 42.0791 23.5166 42.9775H19.166L19.1514 42.8896C19.1025 41.083 19.6836 39.5742 20.8945 38.3633C22.1152 37.1426 23.7412 36.5322 25.7725 36.5322C27.8135 36.5322 29.4248 37.0498 30.6064 38.085C31.7881 39.1104 32.3789 40.5312 32.3789 42.3477C32.3789 43.5 32.1006 44.5205 31.5439 45.4092C30.9873 46.2881 29.7959 47.7236 27.9697 49.7158L25.3623 52.499L25.4062 52.5723H32.8916Z" fill="#FF9900"/>
<path d="M42.3984 48.5V42.5967L42.3105 42.5674L38.6777 48.5H42.3984ZM46.8516 36.8105V48.5H48.7852V51.957H46.8516V56H42.3984V51.957H34.957L34.6934 49.2031L42.3984 36.8398V36.8105H46.8516Z" fill="#FF9900"/>
<path d="M58.9072 36.9863L52.3447 57.8311H49.1953L55.7432 36.9863H58.9072Z" fill="#FF9900"/>
<path d="M73.5996 36.8105V40.2529C71.2266 42.958 69.6689 45.8242 68.9268 48.8516C68.5752 50.2969 68.2969 52.0645 68.0918 54.1543L67.9014 56.0146H63.4482L63.624 54.1543C64.1709 48.4805 66.0703 43.8418 69.3223 40.2383H59.7568V36.8105H73.5996Z" fill="#FF9900"/>
</svg>
